<?xml version="1.0" encoding="utf-8"?>
<!-- Generator: Adobe Illustrator 16.0.0, SVG Export Plug-In . SVG Version: 6.00 Build 0)  -->
<!DOCTYPE svg PUBLIC "-//W3C//DTD SVG 1.1//EN" "http://www.w3.org/Graphics/SVG/1.1/DTD/svg11.dtd">
<svg version="1.1" id="Layer_1" xmlns="http://www.w3.org/2000/svg" xmlns:xlink="http://www.w3.org/1999/xlink" x="0px" y="0px"
	 width="474.9px" height="489.1px" viewBox="0 0 474.9 489.1" style="enable-background:new 0 0 474.9 489.1;" xml:space="preserve"
	>
<style type="text/css">
<![CDATA[
	.st0{clip-path:url(#SVGID_2_);fill:#FFFFFF;}
]]>
</style>
<g>
	<defs>
		<rect id="SVGID_1_" width="474.9" height="489.1"/>
	</defs>
	<clipPath id="SVGID_2_">
		<use xlink:href="#SVGID_1_"  style="overflow:visible;"/>
	</clipPath>
	<path class="st0" d="M226.4,12.1l0-12.1C114.3,2.6,46.5,59.4,3.3,146.4C73.1,19.5,192.2,10.1,226.4,12.1"/>
	<path class="st0" d="M474.4,193.7c-37.4-114.5-114-169.4-225-171.6C355.6,31.6,433.3,84.6,474.4,193.7"/>
	<path class="st0" d="M440.2,416.5c2.4,0,4.7,0.6,6.9,1.8c2.2,1.2,3.9,2.9,5.2,5.1c1.3,2.2,1.9,4.6,1.9,7c0,2.4-0.6,4.7-1.8,6.9
		c-1.2,2.2-2.9,3.9-5.1,5.1c-2.2,1.2-4.5,1.8-6.9,1.8c-2.4,0-4.7-0.6-6.9-1.8c-2.2-1.2-3.9-2.9-5.1-5.1c-1.2-2.2-1.8-4.5-1.8-6.9
		c0-2.4,0.6-4.8,1.9-7c1.3-2.2,3-3.9,5.2-5.1C435.5,417.1,437.8,416.5,440.2,416.5 M440.2,419.2c-1.9,0-3.7,0.5-5.5,1.4
		c-1.8,1-3.1,2.3-4.1,4.1c-1,1.8-1.5,3.7-1.5,5.6c0,1.9,0.5,3.8,1.5,5.6c1,1.8,2.4,3.1,4.1,4.1c1.8,1,3.6,1.5,5.5,1.5
		c1.9,0,3.8-0.5,5.6-1.5c1.8-1,3.1-2.4,4.1-4.1c1-1.8,1.5-3.6,1.5-5.6c0-2-0.5-3.8-1.5-5.6c-1-1.8-2.4-3.2-4.2-4.1
		C443.9,419.7,442.1,419.2,440.2,419.2 M433.9,437.8v-14.7h3c2.8,0,4.4,0,4.7,0c1,0.1,1.8,0.3,2.3,0.6c0.6,0.3,1,0.8,1.4,1.4
		c0.4,0.6,0.6,1.3,0.6,2.1c0,1.1-0.3,2-1,2.7c-0.7,0.8-1.7,1.2-2.9,1.4c0.4,0.2,0.8,0.4,1,0.6c0.2,0.2,0.6,0.6,1,1.1
		c0.1,0.1,0.5,0.7,1.1,1.8l1.7,3H443l-1.2-2.4c-0.8-1.6-1.5-2.6-2.1-3c-0.5-0.4-1.2-0.6-2.1-0.6h-0.8v6.1H433.9z M436.9,429.4h1.2
		c1.7,0,2.8-0.1,3.2-0.2c0.4-0.1,0.7-0.4,1-0.7c0.2-0.3,0.4-0.7,0.4-1.1c0-0.4-0.1-0.8-0.4-1.1c-0.2-0.3-0.6-0.5-1-0.7
		c-0.4-0.1-1.5-0.2-3.2-0.2h-1.2V429.4z"/>
	<path class="st0" d="M3.8,146.4C47,59.3,114.8,2.6,226.9,0l0,12.1C192.8,10,73.6,19.5,3.8,146.4"/>
	<path class="st0" d="M249.9,22.1c110.9,2.2,187.5,57.1,225,171.6C433.8,84.6,356.1,31.6,249.9,22.1"/>
	<path class="st0" d="M111.5,294c0,1.1-0.2,2-0.6,2.7l0.1-0.1c-0.6,1.3-2,2.3-4,3.1c-1.6,0.6-3.4,0.8-5.2,0.9l-18.4,0
		c-1,0-1.5-0.5-1.5-1.5l0-20.8c0-1,0.5-1.5,1.5-1.5l18.5,0c1.2,0,2.3,0.1,3.2,0.2c4.3,0.7,6.5,2.7,6.5,5.8L111.5,294z M107.1,294
		l0-11.3c0-0.9-0.7-1.6-2.1-2.1c-1-0.3-2.1-0.5-3.4-0.5l-15.5,0l0,16.7h15.5c1.3,0,2.5-0.2,3.5-0.5
		C106.5,295.9,107.2,295.1,107.1,294"/>
	<path class="st0" d="M140.8,298.4c0,1.3-0.5,2-1.5,2l-15.5,0c-2.4,0-4.5-0.4-6.2-1.2c-2.3-1.1-3.5-2.6-3.5-4.7l0-11.8
		c0-1.2,0.4-2.2,1.1-3.1c1.7-2,4.6-3,8.9-3h4.2c1,0,1.5,0.5,1.5,1.5l0,0.5c0,1-0.5,1.5-1.5,1.5c-0.1,0-0.4,0-1.1,0
		c-0.7,0-1.3,0-1.8,0c-4.8,0-7.1,0.9-7.1,2.6v4.2l21,0c1.1,0,1.6,0.6,1.6,1.7c0,0.5-0.1,0.9-0.4,1.3c-0.3,0.4-0.7,0.6-1.2,0.6
		l-20.9,0l0,3.9c0,1.7,1.8,2.5,5.6,2.5h15.4C140.3,296.9,140.8,297.4,140.8,298.4"/>
	<path class="st0" d="M184.5,298.9c0,1-0.5,1.5-1.5,1.5l-13.7,0c-2.4,0-4.2-0.1-5.4-0.3c-2.1-0.3-3.7-1-4.9-2c-1.1-1-1.6-2.4-1.6-4
		l0-16c0-1,0.5-1.5,1.5-1.5c1.1,0,1.7,0,1.9,0.1c0.6,0.2,0.9,0.7,0.9,1.4l0,16c0,1.3,1,2.1,3,2.5c0.8,0.2,2.3,0.2,4.4,0.2H183
		c0.6,0,1.1,0.2,1.3,0.6C184.4,297.7,184.5,298.2,184.5,298.9"/>
	<path class="st0" d="M219,298.2c0.1,0.2,0.1,0.4,0.1,0.6c0,0.6-0.2,1.1-0.6,1.5c-0.4,0.4-0.9,0.6-1.5,0.6c-0.8,0-1.5-0.4-2-1.2
		l-3.9-5.6l-18.3,0l-3.8,5.6c-0.4,0.6-0.9,0.9-1.4,0.9c-0.3,0-0.6-0.1-0.9-0.2c-0.8-0.4-1.2-0.8-1.2-1.4c0-0.1,0.1-0.3,0.1-0.4
		l13.7-21c0.5-0.8,1.4-1.2,2.7-1.3c1-0.1,1.8,0.2,2.3,0.9c0.1,0.1,0.1,0.2,0.2,0.4L219,298.2z M208.5,290.5l-6.6-9.7l-6.6,9.7
		L208.5,290.5z"/>
	<path class="st0" d="M262.5,294.5c0,1.3-0.2,2.3-0.6,3c-1.1,1.9-4.4,2.9-9.8,2.9h-15c-1,0-1.5-0.5-1.5-1.5c0-0.7,0.1-1.2,0.2-1.5
		c0.2-0.4,0.6-0.6,1.3-0.6l15,0c4.1,0,6.1-0.7,6.1-2.3v-2.1c0-1.5-2-2.3-5.9-2.4c-6.7-0.2-10.3-0.3-10.9-0.4
		c-3.9-0.7-5.9-2.4-5.9-5.2v-1.8c0-2.8,1.5-4.7,4.6-5.5c1.4-0.4,4.1-0.6,8.1-0.6c1,0,1.5,0.5,1.5,1.5v0.5c0,1-0.5,1.5-1.5,1.5h-0.8
		h-1.1c-4.3,0-6.4,0.8-6.4,2.5v1.7c0,1,0.9,1.7,2.7,2c0.7,0.1,2,0.2,3.8,0.2l5.8,0c2.6,0,4.8,0.4,6.6,1.1c2.5,1,3.8,2.6,3.8,4.8
		L262.5,294.5z"/>
	<path class="st0" d="M297,298.1c0.1,0.2,0.1,0.4,0.1,0.6c0,0.6-0.2,1.1-0.6,1.5c-0.4,0.4-0.9,0.6-1.5,0.6c-0.8,0-1.5-0.4-2-1.2
		l-3.9-5.6l-18.3,0l-3.8,5.6c-0.4,0.6-0.9,0.9-1.3,0.9c-0.3,0-0.6-0.1-1-0.2c-0.8-0.3-1.2-0.8-1.2-1.4c0-0.1,0.1-0.3,0.1-0.4
		l13.7-21c0.5-0.8,1.4-1.2,2.7-1.3c1,0,1.8,0.2,2.3,0.9c0.1,0.1,0.1,0.2,0.2,0.4L297,298.1z M286.5,290.5l-6.6-9.7l-6.6,9.7
		L286.5,290.5z"/>
	<path class="st0" d="M326.7,298.8c0,1-0.5,1.5-1.5,1.5l-13.6,0c-2.4,0-4.2-0.1-5.4-0.3c-2.1-0.3-3.8-1-4.9-2c-1.1-1-1.6-2.4-1.6-4
		l0-16c0-1,0.5-1.5,1.5-1.5c1.1,0,1.7,0,1.9,0.1c0.6,0.2,0.9,0.7,0.9,1.4l0,16c0,1.3,1,2.1,3,2.5c0.8,0.2,2.3,0.2,4.4,0.2h13.7
		c0.6,0,1.1,0.2,1.3,0.6C326.6,297.6,326.7,298.1,326.7,298.8"/>
	<path class="st0" d="M358.9,293.6c0,4.5-4.3,6.8-13,6.8c-0.7,0-1.5,0-2.6,0c-1.1,0-1.8,0-2.1,0c-6.1,0-9.8-1.1-11-3.4
		c-0.4-0.8-0.7-1.9-0.7-3.3V278c0-1,0.5-1.5,1.5-1.5c1.1,0,1.7,0,1.9,0.1c0.6,0.2,1,0.7,1,1.4l0,15.3c0,1.5,0.9,2.5,2.7,3
		c1,0.3,2.5,0.4,4.6,0.4h6c2.1,0,3.6-0.1,4.6-0.4c1.8-0.5,2.8-1.5,2.8-3l0-15.3c0-0.8,0.3-1.3,0.9-1.4c0.2,0,0.8-0.1,1.9-0.1
		s1.5,0.5,1.5,1.5L358.9,293.6z"/>
	<path class="st0" d="M391.1,293.8c0,1.1-0.2,2-0.6,2.7l0.1-0.1c-0.7,1.3-2,2.4-4.1,3.1c-1.6,0.6-3.3,0.9-5.1,0.9l-18.4,0
		c-1,0-1.5-0.5-1.5-1.5l0-20.8c0-1,0.5-1.5,1.5-1.5l18.5,0c1.2,0,2.3,0.1,3.2,0.2c4.4,0.7,6.5,2.7,6.5,5.8L391.1,293.8z
		 M386.8,293.8l0-11.3c0-0.9-0.7-1.6-2.1-2.1c-1-0.3-2.1-0.5-3.4-0.5l-15.5,0l0,16.7h15.5c1.4,0,2.5-0.2,3.5-0.5
		C386.1,295.7,386.8,294.9,386.8,293.8"/>
	<path class="st0" d="M118,228.4c0,1.7-0.8,2.5-2.5,2.5l-24.9,0c-6,0-9.1,1.2-9.1,3.6l0,19c0,2.9,3.3,4.3,10,4.3l23.7,0
		c1.7,0,2.5,1,2.5,2.9c0,1.9-0.8,2.9-2.5,2.9l-23.7,0c-3.2,0-5.5-0.1-6.9-0.4c-1.5-0.2-3.1-0.8-4.8-1.7c-1.9-1-3.2-2-4-3.1
		c-0.9-1.2-1.3-2.8-1.3-4.7l0-19.1c0-2.4,1.1-4.5,3.3-6.2c1.9-1.4,4.1-2.4,6.7-2.8c1.4-0.2,3.3-0.4,5.9-0.4l25,0
		c1,0,1.7,0.3,2.1,0.9C117.9,226.5,118,227.2,118,228.4"/>
	<path class="st0" d="M129.3,261c0,1.7-0.8,2.5-2.5,2.5c-1.7,0-2.7-0.1-3.1-0.2c-1-0.3-1.5-1.1-1.5-2.3l0-33.4c0-1.3,0.5-2,1.5-2.3
		c0.3-0.1,1.3-0.1,3-0.1c1.7,0,2.5,0.8,2.5,2.5L129.3,261z M135.1,214.6c-0.2,0.2-1.6,1.7-4.4,4.5c-2.8,2.8-4.3,4.3-4.6,4.5
		c-0.4,0.3-0.9,0.5-1.4,0.5c-0.6,0-1-0.2-1.5-0.5c-0.4-0.4-0.7-0.8-0.6-1.3c0-0.4,0.2-0.8,0.6-1.2l8.8-8.7c0.3-0.2,0.6-0.4,1.1-0.4
		c0.6,0,1.1,0.2,1.6,0.5c0.5,0.4,0.7,0.8,0.7,1.3C135.3,214.1,135.2,214.3,135.1,214.6"/>
	<path class="st0" d="M190,239.4c0,3.5-1.8,6-5.5,7.6c-2.7,1.2-6,1.8-10,1.8l-11.5,0l23.3,9.9c1.2,0.5,1.9,1.3,1.9,2.4
		c0,1.5-0.9,2.3-2.8,2.4c-2.1,0.1-3.4,0-3.9-0.2l-31.9-13.6l0,11.4c0,1.7-0.8,2.5-2.5,2.5c-1.7,0-2.7,0-3.1-0.1
		c-1-0.3-1.5-1.1-1.5-2.3l0-33.4c0-1.7,0.8-2.5,2.4-2.5l28.1,0c4.4,0,7.9,0.6,10.7,1.7c4,1.6,6,4.3,6,8V239.4z M183,239.5v-4.8
		c0-2.6-3.3-3.8-9.8-3.8l-23.6,0l0,12.3l24.8,0C180.1,243.1,183,241.9,183,239.5"/>
	<path class="st0" d="M241.3,228.3c0,1.6-0.8,2.5-2.4,2.5l-24.9,0c-6,0-9,1.2-9,3.6l0,19c0,2.9,3.3,4.3,10,4.3l23.8,0
		c1.7,0,2.6,0.9,2.6,2.9c0,1.9-0.8,2.9-2.5,2.9l-23.8,0c-3.2,0-5.5-0.1-6.9-0.4c-1.5-0.3-3.1-0.8-4.8-1.7c-1.9-1-3.2-2-4-3.1
		c-0.9-1.2-1.3-2.8-1.3-4.7l0-19.1c0-2.4,1.1-4.5,3.3-6.2c1.9-1.4,4.1-2.4,6.7-2.8c1.4-0.2,3.3-0.4,5.9-0.4l25,0
		c1,0,1.7,0.3,2.1,0.9C241.2,226.4,241.3,227.2,241.3,228.3"/>
	<path class="st0" d="M296.4,252.6c0,7.3-6.9,10.9-20.9,10.9c-1.1,0-2.5,0-4.2,0c-1.7,0-2.8-0.1-3.4-0.1c-9.8,0-15.7-1.8-17.7-5.5
		c-0.7-1.3-1-3-1-5.3l0-25.1c0-1.6,0.8-2.5,2.5-2.5c1.7,0,2.7,0,3,0.1c1,0.3,1.5,1.1,1.5,2.3l0,24.6c0,2.4,1.5,4,4.4,4.9
		c1.6,0.4,4,0.6,7.4,0.6l9.6,0c3.4,0,5.8-0.2,7.4-0.6c3-0.8,4.4-2.4,4.4-4.9l0-24.6c0-1.3,0.5-2,1.5-2.3c0.3-0.1,1.4-0.1,3-0.1
		c1.6,0,2.5,0.8,2.5,2.5L296.4,252.6z"/>
	<path class="st0" d="M347.2,260.8c0,1.7-0.8,2.5-2.4,2.5l-22,0c-3.8,0-6.7-0.1-8.6-0.4c-3.4-0.5-6-1.6-7.8-3.2s-2.7-3.8-2.7-6.4
		l0-25.8c0-1.6,0.8-2.5,2.5-2.5c1.7,0,2.7,0,3,0.1c1,0.3,1.5,1.1,1.5,2.3l0,25.8c0,2.1,1.6,3.4,4.9,4c1.3,0.3,3.7,0.4,7.1,0.4l22,0
		c1,0,1.7,0.3,2.1,0.9C347.1,259,347.2,259.7,347.2,260.8"/>
	<path class="st0" d="M400.9,253c0,6.9-5.9,10.3-17.8,10.3h-10.9c-4.6,0-8.4-0.6-11.4-1.8c-4.2-1.7-6.3-4.5-6.3-8.4l0-17.7
		c0-6.9,5.9-10.4,17.7-10.4h10.9c5.4,0,9.3,0.5,11.8,1.4c4,1.6,6,4.5,6,8.9L400.9,253z M393.9,252.9l0-17.4c0-3.2-3.5-4.8-10.6-4.8
		h-11.1c-7.1,0-10.7,1.6-10.7,4.9l0,17.4c0,3.1,3.6,4.7,10.7,4.7l11.1,0C390.3,257.6,393.9,256,393.9,252.9"/>
	<path class="st0" d="M327,92.7c0,0,0,0.1,0,0.2c3.9,2.2,7.6,4.6,11.3,7C332.7,95.3,328.2,92.1,327,92.7"/>
	<path class="st0" d="M330.8,75.6l23.9-3.8c-4.1-2.5-8.2-4.9-12.2-7.2c-1.4-0.8-2.8-1.6-4.1-2.3L330.8,75.6z"/>
	<path class="st0" d="M374.1,84.9c-4.9-3.6-9.8-7-14.7-10.2l-22.2,7.6c0,0,28,9,28.7,11.9c0,0-30.3-8.8-31.5-8.1
		c0,0,37,34.1,38.2,43.3c29.9,32.7,48.1,75.8,48.1,123c0.1,101.7-84.4,184.4-188,184.5C129.4,437,44.8,354.3,44.7,252.7
		C44.6,151,129.2,68,232.7,67.9c8.8,0,17.4,0.6,25.8,1.7c0.7-0.2,1.8-0.3,3.2-0.1c8.5-0.4,31.7-0.6,50,6.6l-17.2-20.8l19.8,14.5
		l-2.6-20.1c-25.4-9.8-53-15.2-82-15.2C107.3,34.7,7.7,131.3,7.8,249.5c0,13.9,1.4,27.6,4.1,40.8C17,334.5,36,376.1,67.8,407
		c9.6,10.7,20.5,20.3,33.2,28.6c-32.4-15.6-57.7-39.6-75.1-68c31.5,77.4,92.5,102.7,188,107.3c-41.6,1.6-68.6,1.4-108-12.2
		C183.1,505.2,329,515.1,427,347.1l2-3.3c-17.2,56.6-51.1,102.5-98.2,131.7c50.8-26.5,108-71.8,128.4-165.1
		C477.1,228.3,454.9,144.9,374.1,84.9 M115,433.1c2.1,1.2,4.3,2.4,6.4,3.6c1.3,1,2.6,2.1,3.9,3.1C122.1,437.9,118.6,435.6,115,433.1
		"/>
	<path class="st0" d="M305.4,82.3l1-0.5c0,0-33.2-11.3-44.8-12.3c-1.4,0.1-2.4,0.1-3,0.2C275,71.9,290.7,76.2,305.4,82.3"/>
	<path class="st0" d="M315.8,51.5l8.4,20.6l12.2-11C329.7,57.6,322.9,54.4,315.8,51.5"/>
	<path class="st0" d="M283.2,146.3l-0.9-0.5l29.6-59.3l-34.2,7.8l27.4-12.4c-5.6-1.8-29.3-9.2-46.8-11.7l-4.4-0.6l4.4-0.4
		c0.3,0,29.3-2.4,51.8,5.7l-18.5-22.4l22.1,16.2l-4.5-35.2l15.4,37.7l19.2-17.3l-11.9,21l47.8-7.6l0.2,1l-41,14.1
		c6.8,2.2,27,9,27.6,11.8l0.2,0.8l-0.8-0.2c-10-2.9-25.5-7.2-30-8c6.1,5.7,36.2,34.3,38.1,43.7l0.3,1.5l-1.1-1.1
		C353,112.1,331,93.3,327.6,93.1c0.1,3.1,0.4,21.9,0,26.6l-0.4,4.1l-0.6-4.1c-1.8-11.5-4.3-23.8-5.6-25.6L283.2,146.3z M313.8,85.1
		l-27.8,55.8l34.6-47.7l0.2,0c0.1,0,0.4,0,0.6,0.1c1.7,1.1,4.1,13.8,5.4,21.4c0.1-8.2-0.2-21.7-0.2-21.9l0-0.3l0.3-0.1
		c3.7-1.8,35.9,27.7,45.6,36.6c-5.3-11.7-37.9-42-38.2-42.3l-0.5-0.5l0.6-0.3c1.1-0.7,18.4,4.2,29.9,7.5
		c-3.9-2.4-15.7-6.8-27.1-10.4l-1.4-0.5L374,69.2l-44.1,7.1l9.9-17.4L324.1,73l-13-31.9l3.8,29.9l-17.4-12.8l15.8,19.1l-1.8-0.7
		c-17.2-6.8-38.9-6.9-48.4-6.6c19.4,3.4,43.3,11.3,43.5,11.4l1.2,0.4l-20.7,9.4L313.8,85.1z"/>
	<path class="st0" d="M172,25.1l12.3,10.7c0,0-146.3,21.3-184.3,194.3C0,230.1-2,74.1,172,25.1"/>
</g>
</svg>
