<svg xmlns="http://www.w3.org/2000/svg" viewBox="0 0 173 32">
    <path fill="#00B0EA" d="M15.861,1.919c-1.972,0-3.846,0.411-5.547,1.146L7.245,0H7.238 C3.998,1.419,1.401,4.029,0,7.28l3.074,3.071l-0.002,0.003c-0.742,1.704-1.184,3.56-1.184,5.538 c0,7.72,6.255,13.974,13.973,13.974c7.715,0,13.972-6.256,13.972-13.974C29.833,8.176,23.577,1.919,15.861,1.919"/>
    <path fill="#15374C" d="M14.437,21.696c1.4-3.251,3.999-5.861,7.238-7.281h0.002L10.316,3.071 L10.311,3.07c-3.242,1.42-5.839,4.029-7.239,7.282L14.437,21.696z"/>
    <path fill="#15374C" d="M22.489,18.29c-1.882,0.824-3.39,2.343-4.205,4.229l5.306,1.097L22.489,18.29z"/>
    <g fill="#FFFFFF">
        <path d="M22.489,18.292c-0.427-2.037-0.812-3.876-0.812-3.876l-0.004,0.001 c-3.238,1.42-5.836,4.029-7.237,7.28l3.848,0.822C19.101,20.639,20.612,19.114,22.489,18.292"/>
        <rect x="49.787" y="7.121" width="2.409" height="16.083"/>
        <path d="M82.317,22.943c0,2.181-0.845,3.093-2.18,3.093v1.922c3.809,0,4.589-2.185,4.589-5.666V7.121h-2.41 L82.317,22.943L82.317,22.943z"/>
        <path d="M62.714,14.806c-0.54,1.784-1.041,3.627-1.239,4.764c-0.173-1.168-0.996-3.428-1.398-4.764l-2.443-7.685 h-2.311l5.144,16.083h1.754L67.2,7.121h-2.112L62.714,14.806z"/>
        <polygon points="78.094,21.252 78.092,21.252 78.092,21.221 72.364,21.221 72.37,15.945 76.861,15.945 76.861,13.959 72.37,13.959 72.37,9.106 77.684,9.106 77.684,7.118 69.961,7.121 69.961,23.205 78.092,23.208 78.092,23.205 78.098,23.205"/>
        <path d="M114.328,17.373c0,2.896-0.911,4.232-2.965,4.232c-2.051,0-2.961-1.338-2.961-4.232V7.121h-2.409v9.33 c0,4.814,1.226,7.175,5.353,7.175c4.357,0,5.352-2.733,5.352-7.127V7.121h-2.368L114.328,17.373L114.328,17.373z"/>
        <path d="M154.641,7.121l-5.308,16.083h2.112l1.104-3.354h5.93l1.135,3.354h2.312l-5.469-16.083H154.641z M157.822,17.925h-4.637l0.797-2.405c0.603-1.854,1.271-4.346,1.498-5.479c0.201,1.11,1.039,4.026,1.528,5.479L157.822,17.925z"/>
        <path d="M95.523,7.121c-4.432,0-6.774,3.224-6.774,8.236c0,5.014,2.344,8.269,6.774,8.269 c4.424,0,6.771-3.255,6.771-8.269C102.296,10.345,99.947,7.121,95.523,7.121 M95.523,21.507c-2.703,0-4.201-2.18-4.201-6.15 c0-3.97,1.498-6.146,4.201-6.146c2.701,0,4.199,2.175,4.199,6.146C99.723,19.328,98.225,21.507,95.523,21.507"/>
        <path d="M131.305,12.037c0-3.743-2.965-4.916-6.936-4.916h-2.816v16.083h2.411v-6.052h1.461 c0.642,0,1.204-0.055,1.204-0.055l2.885,6.105h2.569l-3.229-6.854C130.464,15.508,131.305,13.998,131.305,12.037 M125.477,15.162 h-1.513v-6.01h1.513c2.246,0,3.418,1.226,3.418,3.113C128.895,14.152,127.657,15.162,125.477,15.162"/>
        <path d="M144.182,11.887c0,2.084,0.045,5.899,0.145,6.88c-0.436-0.938-0.857-1.789-1.438-2.697l-5.803-8.949h-1.4 v16.083h2.084v-5.8c0-3.301-0.115-5.185-0.211-5.915c0.26,0.619,1.127,2.103,1.551,2.756l5.791,8.958h1.369V7.121h-2.088V11.887z"/>
        <polygon points="46.27,21.221 41.227,21.221 41.227,7.121 38.815,7.121 38.815,23.205 46.27,23.205"/>
        <polygon points="167.395,21.221 167.395,7.121 164.984,7.121 164.984,23.205 172.035,23.205 172.035,21.219"/>
    </g>
</svg>
