<?xml version="1.0" encoding="utf-8"?>
<!-- Generator: Adobe Illustrator 19.2.0, SVG Export Plug-In . SVG Version: 6.00 Build 0)  -->
<svg version="1.1" id="Layer_1" xmlns="http://www.w3.org/2000/svg" xmlns:xlink="http://www.w3.org/1999/xlink" x="0px" y="0px"
	 viewBox="0 0 765.4 226.8" style="enable-background:new 0 0 765.4 226.8;" xml:space="preserve">
<style type="text/css">
	.st0{fill:#FFFFFF;}
</style>
<path class="st0" d="M641.8,198h4.7c8-0.8,12.6-5.5,12.6-15.2v-90c0-9.9-12.1-11.9-17.1-14.4v-4.8c23.9-9.9,37.1-18.3,40-18.3
	c2,0,3,1,3,4.2v28.8h0.7c8.2-12.5,22-33,42-33c8.2,0,18.7,5.4,18.7,17c0,8.7-6.2,16.3-15.4,16.3c-10.2,0-10.2-7.7-21.6-7.7
	c-5.6,0-23.9,7.4-23.9,26.6v75.3c0,9.7,5.3,14.5,13.2,15.2h5.1v8l-61.9,0.1V198z"/>
<path class="st0" d="M80.4,199.9C43,187.4,19,154.7,19,113.8c0-49.4,48.9-84.7,98.8-84.7c20.6,0,40.5,6.3,60.1,12.8l2.5,34.4H174
	c-4.8-28.2-27.2-37.2-55.7-37.2c-29.3,0-63.1,16.2-63.1,74c0,48.6,29.3,83.5,68.5,83.5c25.2,0,46.1-16.4,51.1-41.6l5.9,1.4
	l-5.9,35.1C170.9,193.8,133.4,217.8,80.4,199.9"/>
<path class="st0" d="M250,206h-61.1v-8h1.8c8.7,0,14.9-2,14.9-10V64.5c0-15.8-4.7-24.6-16.4-27.2v-3.9c12.4-3.2,24.8-7.5,31.4-10.5
	c3.4-1.5,5.9-2.7,6.8-2.7c1.9,0,6.2,1.5,6.2,3.4V188c0,8,6.8,10,15.5,10h0.9V206z"/>
<path class="st0" d="M411,195.3c0.1,0.1-3.9-36.5-3.9-36.5l5.9-1.6c4.3,21.1,17.4,39.1,41.3,39.1c19.4,0,26.6-11.5,26.6-22.8
	c0-37.8-71.5-25.6-71.5-77.2c0-17.9,14.8-41,50.8-41c10.5,0,24.6,2.9,37.4,9.3l2.3,32.7h-7.5c-3.3-20.2-14.8-31.7-35.8-31.7
	c-13.1,0-25.6,7.4-25.6,21.1c0,37.5,76.1,26,76.1,76.3c0,13.4-6.9,27-21.9,35.1C451.7,217,411,195.3,411,195.3"/>
<path class="st0" d="M246.3,132c0.1-42.9,31.1-76.7,75-76.7c45.5,0,80.1,29.6,79.6,75.4c-0.4,33.2-27.2,76.2-79.6,75.4
	C259,202.7,246.2,156.3,246.3,132 M276.4,128.8c0,25.6,13.5,67.4,45.5,70.1h6.8c30.2-2.5,42.1-38.2,42.1-65
	c0-26.4-14.4-70.3-49.1-70.3C289.2,63.7,276.4,101.1,276.4,128.8"/>
<path class="st0" d="M515.4,136.7c0-62.8,43.3-81.4,66.3-81.4c26.6,0,55.1,16.3,55.4,50.3c0,1.9,0,3.8-0.3,5.8l-3,1.9h-92.2
	c-0.7,2.9-0.7,7.7,0,18.6c2,30.4,22,55.4,48.2,55.4c18,0,32.1-9.6,44.3-21.5l4.6,4.5c-8.8,11.5-30.7,35.8-56.6,35.7
	C523.3,205.8,515.4,152.3,515.4,136.7 M542.6,103h57.1c8.2,0,9.2-4.2,9.2-8c0-16.3-10.2-29.5-28.5-29.5
	C560.3,65.6,546.5,80,542.6,103"/>
</svg>
