<svg id="TOP" xmlns="http://www.w3.org/2000/svg" width="201" height="85" viewBox="0 0 201 85"><defs><style>.cls-1{fill:#89d5f5}.cls-1,.cls-2,.cls-3{fill-rule:evenodd}.cls-2{fill:#55c9f0}.cls-3{fill:#1fb0dc}</style></defs><path class="cls-1" d="M36.96 10.312l27.995 16.1V58.6L36.96 74.7 8.965 58.6V26.411zM36.96 0l36.958 21.255v42.5L36.96 85.005.007 63.752v-42.5zM61 28.688l-1.48.851-10.932 6.277-.713.415-.026-.016.713-.41c4.135-2.394 8.3-4.74 12.435-7.118zm-40.337 4.447l-7.735-4.447L36.96 14.866q3.87 2.218 7.734 4.447z"/><path class="cls-2" d="M36.943 83.9L.007 63.083V21.457l8.954 5.049v31.533l27.982 15.769V83.9zm-24.02-55.163v27.072l24.02 13.538.005-8.713-16.294-9.182V33.093z"/><path class="cls-3" d="M61.077 29.334v27.315L37.011 70.31v-8.792l16.322-9.265V39.85l-5.393-3.06q6.566-3.73 13.138-7.456M37.011 85l37-21.006v-42l-8.971 5.089V58.9L37.011 74.811V85z"/><path class="cls-2" d="M92.77 32.3c0-5.918 4.536-9.63 10.11-9.63a8.714 8.714 0 0 1 7.981 4.521l-4.033 2.094a4.633 4.633 0 0 0-3.948-2.372 5.15 5.15 0 0 0-5.21 5.387 5.152 5.152 0 0 0 5.21 5.387 5.928 5.928 0 0 0 3.443-1.117v-1.449h-4.2V30.9h9.019v7.4a10.815 10.815 0 0 1-8.262 3.628c-5.574.004-10.11-3.708-10.11-9.628zm31.621 9.3l-3.137-6.253h-2.464V41.6h-4.817V22.977h9.355c4.143 0 6.5 2.737 6.5 6.2a5.643 5.643 0 0 1-3.726 5.583l3.809 6.839h-5.517zm.533-12.449a2.086 2.086 0 0 0-2.325-1.983h-3.809v3.993h3.81a2.075 2.075 0 0 0 2.324-2.013zM145.173 41.6l-.924-2.68h-7.366l-.924 2.68H130.5l7.03-18.62h6.049l7.058 18.62h-5.462zm-4.621-13.873l-2.38 7.007h4.76zm24.17 13.873l-7.9-10.777V41.6h-4.817V22.977h4.956l7.563 10.245V22.977h4.844V41.6h-4.65zm8.014 0V22.977h7.841c5.883 0 10.11 3.518 10.11 9.3S186.46 41.6 180.605 41.6h-7.869zm13.022-9.323a4.775 4.775 0 0 0-5.153-5.109h-3.052v10.243h3.024a4.952 4.952 0 0 0 5.181-5.136zM110.1 64.864V52.747l-4.732 12.117h-2.129l-4.7-12.117v12.117h-4.818v-18.62h6.694l3.891 10.107 3.923-10.107h6.692v18.62H110.1zm8.18 0v-18.62h13.7v4.189h-8.88v2.9h8.681v4.186H123.1v3.156h8.878v4.186h-13.7zm16.5 0v-18.62h7.842c5.88 0 10.109 3.518 10.109 9.3s-4.229 9.323-10.082 9.323h-7.869zm13.02-9.323a4.775 4.775 0 0 0-5.153-5.109H139.6v10.246h3.025a4.952 4.952 0 0 0 5.175-5.137zm7.341 9.323v-18.62h4.818v18.62h-4.818zm7.227-9.3c0-5.752 4.367-9.63 10.11-9.63a8.617 8.617 0 0 1 8.148 5l-4.143 1.955a4.484 4.484 0 0 0-4-2.707 5.39 5.39 0 0 0 0 10.774 4.488 4.488 0 0 0 4-2.707l4.147 1.951a8.672 8.672 0 0 1-8.148 5c-5.743 0-10.11-3.909-10.11-9.632zm33.02 9.3l-.923-2.68H187.1l-.923 2.68h-5.462l7.03-18.621h6.055l7.058 18.621h-5.462zm-4.62-13.873L188.392 58h4.76z"/></svg>