<svg width="39" height="30" viewBox="0 0 39 30" xmlns="http://www.w3.org/2000/svg"><title>Кавычки</title><g fill="#19B4DC" fill-rule="evenodd"><path d="M9.195 15.102c-.047-1.928-.712-3.857-1.993-5.785-1.349-2.031-3.095-3.574-5.238-4.63L5.654 0c10 6.485 13.513 14.219 10.536 23.203-.437 1.32-1.66 3.228-3.15 4.51a7.656 7.656 0 0 1-5.421 2.229c-4.208 0-7.619-3.358-7.619-7.5 0-4.143 3.411-7.5 7.619-7.5.54 0 1.068.055 1.576.16zM30.148 15.102c-.048-1.928-.712-3.857-1.993-5.785-1.35-2.031-3.095-3.574-5.238-4.63L26.607 0c10 6.485 13.512 14.219 10.536 23.203-.437 1.32-1.661 3.228-3.151 4.51a7.656 7.656 0 0 1-5.42 2.229c-4.208 0-7.62-3.358-7.62-7.5 0-4.143 3.412-7.5 7.62-7.5.54 0 1.067.055 1.576.16z"/></g></svg>